<?xml version="1.0" encoding="UTF-8" standalone="no"?>
<!DOCTYPE svg PUBLIC "-//W3C//DTD SVG 1.1//EN"
 "http://www.w3.org/Graphics/SVG/1.1/DTD/svg11.dtd">
<!-- Generated by graphviz version 2.38.0 (20140413.2041)
 -->
<!-- Title: g Pages: 1 -->
<svg width="468pt" height="343pt"
 viewBox="0.00 0.00 468.00 342.71" xmlns="http://www.w3.org/2000/svg" xmlns:xlink="http://www.w3.org/1999/xlink">
<g id="graph0" class="graph" transform="scale(1 1) rotate(0) translate(4.124 338.49)">
<title>g</title>
<polygon fill="white" stroke="none" points="-4.124,4.216 -4.124,-338.49 463.88,-338.49 463.88,4.216 -4.124,4.216"/>
<!-- t=0\n10,20 -->
<g id="node1" class="node"><title>t=0\n10,20</title>
<ellipse fill="none" stroke="black" stroke-width="2" cx="207.38" cy="-305.99" rx="41.5" ry="28.5"/>
<text text-anchor="middle" x="207.38" y="-309.39" font-family="Times,serif" font-size="14.00">t=0</text>
<text text-anchor="middle" x="207.38" y="-293.39" font-family="Times,serif" font-size="14.00">10,20</text>
</g>
<!-- t=0\n10,21 -->
<g id="node2" class="node"><title>t=0\n10,21</title>
<ellipse fill="none" stroke="black" stroke-width="2" cx="154.38" cy="-213.42" rx="41.5" ry="28.5"/>
<text text-anchor="middle" x="154.38" y="-216.82" font-family="Times,serif" font-size="14.00">t=0</text>
<text text-anchor="middle" x="154.38" y="-200.82" font-family="Times,serif" font-size="14.00">10,21</text>
</g>
<!-- t=0\n10,20&#45;&gt;t=0\n10,21 -->
<g id="edge1" class="edge"><title>t=0\n10,20&#45;&gt;t=0\n10,21</title>
<path fill="none" stroke="black" stroke-width="2" d="M192.33,-279.28C186.74,-269.73 180.32,-258.75 174.36,-248.57"/>
<polygon fill="black" stroke="black" stroke-width="2" points="177.348,-246.747 169.28,-239.88 171.305,-250.279 177.348,-246.747"/>
</g>
<!-- t=0\n11,20 -->
<g id="node3" class="node"><title>t=0\n11,20</title>
<ellipse fill="none" stroke="black" stroke-width="2" cx="261.38" cy="-213.42" rx="41.5" ry="28.5"/>
<text text-anchor="middle" x="261.38" y="-216.82" font-family="Times,serif" font-size="14.00">t=0</text>
<text text-anchor="middle" x="261.38" y="-200.82" font-family="Times,serif" font-size="14.00">11,20</text>
</g>
<!-- t=0\n10,20&#45;&gt;t=0\n11,20 -->
<g id="edge2" class="edge"><title>t=0\n10,20&#45;&gt;t=0\n11,20</title>
<path fill="none" stroke="black" stroke-width="2" d="M222.71,-279.28C228.4,-269.73 234.95,-258.75 241.02,-248.57"/>
<polygon fill="black" stroke="black" stroke-width="2" points="244.085,-250.264 246.19,-239.88 238.069,-246.685 244.085,-250.264"/>
</g>
<!-- t=0\n10,21&#39; -->
<g id="node4" class="node"><title>t=0\n10,21&#39;</title>
<ellipse fill="none" stroke="black" stroke-width="2" cx="47.376" cy="-120.85" rx="47.5" ry="28.5"/>
<text text-anchor="middle" x="47.376" y="-124.25" font-family="Times,serif" font-size="14.00">t=0</text>
<text text-anchor="middle" x="47.376" y="-108.25" font-family="Times,serif" font-size="14.00">10,21&#39;</text>
</g>
<!-- t=0\n10,21&#45;&gt;t=0\n10,21&#39; -->
<g id="edge3" class="edge"><title>t=0\n10,21&#45;&gt;t=0\n10,21&#39;</title>
<path fill="none" stroke="black" stroke-width="2" d="M129.02,-190.96C114.91,-179.02 97.163,-163.99 81.818,-151.01"/>
<polygon fill="black" stroke="black" stroke-width="2" points="83.9389,-148.22 74.045,-144.43 79.4161,-153.562 83.9389,-148.22"/>
</g>
<!-- t=0\n11,21 -->
<g id="node5" class="node"><title>t=0\n11,21</title>
<ellipse fill="none" stroke="black" stroke-width="2" cx="154.38" cy="-120.85" rx="41.5" ry="28.5"/>
<text text-anchor="middle" x="154.38" y="-124.25" font-family="Times,serif" font-size="14.00">t=0</text>
<text text-anchor="middle" x="154.38" y="-108.25" font-family="Times,serif" font-size="14.00">11,21</text>
</g>
<!-- t=0\n10,21&#45;&gt;t=0\n11,21 -->
<g id="edge4" class="edge"><title>t=0\n10,21&#45;&gt;t=0\n11,21</title>
<path fill="none" stroke="black" stroke-width="2" d="M154.38,-184.76C154.38,-176.77 154.38,-167.91 154.38,-159.43"/>
<polygon fill="black" stroke="black" stroke-width="2" points="157.88,-159.35 154.38,-149.35 150.88,-159.35 157.88,-159.35"/>
</g>
<!-- t=0\n11,21&#39; -->
<g id="node6" class="node"><title>t=0\n11,21&#39;</title>
<ellipse fill="none" stroke="black" stroke-width="2" cx="261.38" cy="-120.85" rx="47.5" ry="28.5"/>
<text text-anchor="middle" x="261.38" y="-124.25" font-family="Times,serif" font-size="14.00">t=0</text>
<text text-anchor="middle" x="261.38" y="-108.25" font-family="Times,serif" font-size="14.00">11,21&#39;</text>
</g>
<!-- t=0\n11,20&#45;&gt;t=0\n11,21&#39; -->
<g id="edge5" class="edge"><title>t=0\n11,20&#45;&gt;t=0\n11,21&#39;</title>
<path fill="none" stroke="black" stroke-width="2" d="M261.38,-184.76C261.38,-176.77 261.38,-167.91 261.38,-159.43"/>
<polygon fill="black" stroke="black" stroke-width="2" points="264.88,-159.35 261.38,-149.35 257.88,-159.35 264.88,-159.35"/>
</g>
<!-- t=0\n12,20 -->
<g id="node7" class="node"><title>t=0\n12,20</title>
<ellipse fill="none" stroke="black" stroke-width="2" cx="368.38" cy="-120.85" rx="41.5" ry="28.5"/>
<text text-anchor="middle" x="368.38" y="-124.25" font-family="Times,serif" font-size="14.00">t=0</text>
<text text-anchor="middle" x="368.38" y="-108.25" font-family="Times,serif" font-size="14.00">12,20</text>
</g>
<!-- t=0\n11,20&#45;&gt;t=0\n12,20 -->
<g id="edge6" class="edge"><title>t=0\n11,20&#45;&gt;t=0\n12,20</title>
<path fill="none" stroke="black" stroke-width="2" d="M286.73,-190.96C301.15,-178.75 319.39,-163.32 334.96,-150.14"/>
<polygon fill="black" stroke="black" stroke-width="2" points="337.457,-152.612 342.83,-143.48 332.936,-147.268 337.457,-152.612"/>
</g>
<!-- t=0\n12,21 -->
<g id="node8" class="node"><title>t=0\n12,21</title>
<ellipse fill="none" stroke="black" stroke-width="2" cx="317.38" cy="-28.284" rx="41.5" ry="28.5"/>
<text text-anchor="middle" x="317.38" y="-31.684" font-family="Times,serif" font-size="14.00">t=0</text>
<text text-anchor="middle" x="317.38" y="-15.684" font-family="Times,serif" font-size="14.00">12,21</text>
</g>
<!-- t=0\n12,20&#45;&gt;t=0\n12,21 -->
<g id="edge7" class="edge"><title>t=0\n12,20&#45;&gt;t=0\n12,21</title>
<path fill="none" stroke="black" stroke-width="2" d="M353.9,-94.142C348.62,-84.772 342.57,-74.019 336.92,-63.997"/>
<polygon fill="black" stroke="black" stroke-width="2" points="339.845,-62.0579 331.89,-55.06 333.745,-65.4912 339.845,-62.0579"/>
</g>
<!-- t=1\n10,20 -->
<g id="node9" class="node"><title>t=1\n10,20</title>
<ellipse fill="none" stroke="black" stroke-width="2" cx="418.38" cy="-28.284" rx="41.5" ry="28.5"/>
<text text-anchor="middle" x="418.38" y="-31.684" font-family="Times,serif" font-size="14.00">t=1</text>
<text text-anchor="middle" x="418.38" y="-15.684" font-family="Times,serif" font-size="14.00">10,20</text>
</g>
<!-- t=0\n12,20&#45;&gt;t=1\n10,20 -->
<g id="edge8" class="edge"><title>t=0\n12,20&#45;&gt;t=1\n10,20</title>
<path fill="none" stroke="black" stroke-width="2" d="M382.57,-94.142C387.74,-84.772 393.68,-74.019 399.21,-63.997"/>
<polygon fill="black" stroke="black" stroke-width="2" points="402.375,-65.5052 404.15,-55.06 396.249,-62.1187 402.375,-65.5052"/>
</g>
</g>
</svg>
