<?xml version="1.0" encoding="UTF-8" standalone="no"?>
<!DOCTYPE svg PUBLIC "-//W3C//DTD SVG 1.1//EN"
 "http://www.w3.org/Graphics/SVG/1.1/DTD/svg11.dtd">
<!-- Generated by graphviz version 2.38.0 (20140413.2041)
 -->
<!-- Title: g Pages: 1 -->
<svg width="299pt" height="421pt"
 viewBox="0.00 0.00 298.51 421.08" xmlns="http://www.w3.org/2000/svg" xmlns:xlink="http://www.w3.org/1999/xlink">
<g id="graph0" class="graph" transform="scale(1 1) rotate(0) translate(155.36 208.89)">
<title>g</title>
<polygon fill="white" stroke="none" points="-155.36,212.19 -155.36,-208.89 143.146,-208.89 143.146,212.19 -155.36,212.19"/>
<!-- t=0\n10,20 -->
<g id="node1" class="node"><title>t=0\n10,20</title>
<ellipse fill="none" stroke="black" stroke-width="2" cx="-6.6864" cy="-41.398" rx="41.5" ry="28.5"/>
<text text-anchor="middle" x="-6.6864" y="-44.798" font-family="Times,serif" font-size="14.00">t=0</text>
<text text-anchor="middle" x="-6.6864" y="-28.798" font-family="Times,serif" font-size="14.00">10,20</text>
</g>
<!-- t=0\n10,21 -->
<g id="node2" class="node"><title>t=0\n10,21</title>
<ellipse fill="none" stroke="black" stroke-width="2" cx="3.0833" cy="-119.41" rx="41.5" ry="28.5"/>
<text text-anchor="middle" x="3.0833" y="-122.81" font-family="Times,serif" font-size="14.00">t=0</text>
<text text-anchor="middle" x="3.0833" y="-106.81" font-family="Times,serif" font-size="14.00">10,21</text>
</g>
<!-- t=0\n10,20&#45;&gt;t=0\n10,21 -->
<g id="edge1" class="edge"><title>t=0\n10,20&#45;&gt;t=0\n10,21</title>
<path fill="none" stroke="black" stroke-width="2" d="M-3.104,-70.005C-2.6604,-73.548 -2.2012,-77.214 -1.7428,-80.875"/>
<polygon fill="black" stroke="black" stroke-width="2" points="-5.18163,-81.5824 -0.46606,-91.07 1.76411,-80.7126 -5.18163,-81.5824"/>
</g>
<!-- t=0\n11,20 -->
<g id="node3" class="node"><title>t=0\n11,20</title>
<ellipse fill="none" stroke="black" stroke-width="2" cx="-23.562" cy="36.53" rx="41.5" ry="28.5"/>
<text text-anchor="middle" x="-23.562" y="33.13" font-family="Times,serif" font-size="14.00">t=0</text>
<text text-anchor="middle" x="-23.562" y="49.13" font-family="Times,serif" font-size="14.00">11,20</text>
</g>
<!-- t=0\n10,20&#45;&gt;t=0\n11,20 -->
<g id="edge2" class="edge"><title>t=0\n10,20&#45;&gt;t=0\n11,20</title>
<path fill="none" stroke="black" stroke-width="2" d="M-12.779,-13.264C-13.615,-9.4018 -14.485,-5.3852 -15.352,-1.3833"/>
<polygon fill="black" stroke="black" stroke-width="2" points="-11.9415,-0.595022 -17.479,8.4375 -18.7829,-2.07679 -11.9415,-0.595022"/>
</g>
<!-- t=0\n10,21&#39; -->
<g id="node4" class="node"><title>t=0\n10,21&#39;</title>
<ellipse fill="none" stroke="black" stroke-width="2" cx="-51.935" cy="-176.39" rx="47.5" ry="28.5"/>
<text text-anchor="middle" x="-51.935" y="-179.79" font-family="Times,serif" font-size="14.00">t=0</text>
<text text-anchor="middle" x="-51.935" y="-163.79" font-family="Times,serif" font-size="14.00">10,21&#39;</text>
</g>
<!-- t=0\n10,21&#45;&gt;t=0\n10,21&#39; -->
<g id="edge3" class="edge"><title>t=0\n10,21&#45;&gt;t=0\n10,21&#39;</title>
<path fill="none" stroke="black" stroke-width="2" d="M-19.931,-143.25C-20.269,-143.6 -20.609,-143.95 -20.949,-144.3"/>
<polygon fill="black" stroke="black" stroke-width="2" points="-23.7029,-142.113 -28.128,-151.74 -18.6656,-146.974 -23.7029,-142.113"/>
</g>
<!-- t=0\n11,21 -->
<g id="node5" class="node"><title>t=0\n11,21</title>
<ellipse fill="none" stroke="black" stroke-width="2" cx="69.497" cy="-162.4" rx="41.5" ry="28.5"/>
<text text-anchor="middle" x="69.497" y="-165.8" font-family="Times,serif" font-size="14.00">t=0</text>
<text text-anchor="middle" x="69.497" y="-149.8" font-family="Times,serif" font-size="14.00">11,21</text>
</g>
<!-- t=0\n10,21&#45;&gt;t=0\n11,21 -->
<g id="edge4" class="edge"><title>t=0\n10,21&#45;&gt;t=0\n11,21</title>
<path fill="none" stroke="black" stroke-width="2" d="M33.569,-139.15C33.688,-139.22 33.808,-139.3 33.927,-139.38"/>
<polygon fill="black" stroke="black" stroke-width="2" points="29.0103,-140.368 39.308,-142.86 32.8117,-134.49 29.0103,-140.368"/>
</g>
<!-- t=0\n11,21&#39; -->
<g id="node6" class="node"><title>t=0\n11,21&#39;</title>
<ellipse fill="none" stroke="black" stroke-width="2" cx="-103.86" cy="50.795" rx="47.5" ry="28.5"/>
<text text-anchor="middle" x="-103.86" y="47.395" font-family="Times,serif" font-size="14.00">t=0</text>
<text text-anchor="middle" x="-103.86" y="63.395" font-family="Times,serif" font-size="14.00">11,21&#39;</text>
</g>
<!-- t=0\n11,20&#45;&gt;t=0\n11,21&#39; -->
<g id="edge5" class="edge"><title>t=0\n11,20&#45;&gt;t=0\n11,21&#39;</title>
<path fill="none" stroke="black" stroke-width="2" d="M-64.184,43.746C-64.262,43.76 -64.339,43.774 -64.417,43.787"/>
<polygon fill="black" stroke="black" stroke-width="2" points="-54.1887,45.5039 -64.651,43.829 -55.4278,38.6139 -54.1887,45.5039"/>
</g>
<!-- t=0\n12,20 -->
<g id="node7" class="node"><title>t=0\n12,20</title>
<ellipse fill="none" stroke="black" stroke-width="2" cx="21.58" cy="105.03" rx="41.5" ry="28.5"/>
<text text-anchor="middle" x="21.58" y="101.63" font-family="Times,serif" font-size="14.00">t=0</text>
<text text-anchor="middle" x="21.58" y="117.63" font-family="Times,serif" font-size="14.00">12,20</text>
</g>
<!-- t=0\n11,20&#45;&gt;t=0\n12,20 -->
<g id="edge6" class="edge"><title>t=0\n11,20&#45;&gt;t=0\n12,20</title>
<path fill="none" stroke="black" stroke-width="2" d="M-6.496,62.427C-4.7545,65.07 -2.9664,67.783 -1.1768,70.499"/>
<polygon fill="black" stroke="black" stroke-width="2" points="1.90913,68.8212 4.4894,79.097 -3.93579,72.6731 1.90913,68.8212"/>
</g>
<!-- t=0\n12,21 -->
<g id="node8" class="node"><title>t=0\n12,21</title>
<ellipse fill="none" stroke="black" stroke-width="2" cx="-5.7581" cy="179.69" rx="41.5" ry="28.5"/>
<text text-anchor="middle" x="-5.7581" y="176.29" font-family="Times,serif" font-size="14.00">t=0</text>
<text text-anchor="middle" x="-5.7581" y="192.29" font-family="Times,serif" font-size="14.00">12,21</text>
</g>
<!-- t=0\n12,20&#45;&gt;t=0\n12,21 -->
<g id="edge7" class="edge"><title>t=0\n12,20&#45;&gt;t=0\n12,21</title>
<path fill="none" stroke="black" stroke-width="2" d="M11.4,132.83C10.246,135.98 9.0571,139.23 7.8683,142.48"/>
<polygon fill="black" stroke="black" stroke-width="2" points="11.0637,143.933 4.339,152.12 4.49034,141.526 11.0637,143.933"/>
</g>
<!-- t=1\n10,20 -->
<g id="node9" class="node"><title>t=1\n10,20</title>
<ellipse fill="none" stroke="black" stroke-width="2" cx="97.646" cy="127.56" rx="41.5" ry="28.5"/>
<text text-anchor="middle" x="97.646" y="124.16" font-family="Times,serif" font-size="14.00">t=1</text>
<text text-anchor="middle" x="97.646" y="140.16" font-family="Times,serif" font-size="14.00">10,20</text>
</g>
<!-- t=0\n12,20&#45;&gt;t=1\n10,20 -->
<g id="edge8" class="edge"><title>t=0\n12,20&#45;&gt;t=1\n10,20</title>
<path fill="none" stroke="black" stroke-width="2" d="M60.059,116.43C60.132,116.45 60.206,116.47 60.28,116.49"/>
<polygon fill="black" stroke="black" stroke-width="2" points="52.0255,110.201 60.501,116.56 49.9097,116.874 52.0255,110.201"/>
</g>
</g>
</svg>
