<?xml version="1.0" encoding="UTF-8" standalone="no"?>
<!DOCTYPE svg PUBLIC "-//W3C//DTD SVG 1.1//EN"
 "http://www.w3.org/Graphics/SVG/1.1/DTD/svg11.dtd">
<!-- Generated by graphviz version 2.38.0 (20140413.2041)
 -->
<!-- Title: g Pages: 1 -->
<svg width="944pt" height="65pt"
 viewBox="0.00 0.00 944.11 65.00" xmlns="http://www.w3.org/2000/svg" xmlns:xlink="http://www.w3.org/1999/xlink">
<g id="graph0" class="graph" transform="scale(1 1) rotate(0) translate(3.781 60.784)">
<title>g</title>
<polygon fill="white" stroke="none" points="-3.781,4.216 -3.781,-60.784 940.334,-60.784 940.334,4.216 -3.781,4.216"/>
<!-- t=0\n10,20 -->
<g id="node1" class="node"><title>t=0\n10,20</title>
<ellipse fill="none" stroke="black" stroke-width="2" cx="41.719" cy="-28.284" rx="41.5" ry="28.5"/>
<text text-anchor="middle" x="41.719" y="-31.684" font-family="Times,serif" font-size="14.00">t=0</text>
<text text-anchor="middle" x="41.719" y="-15.684" font-family="Times,serif" font-size="14.00">10,20</text>
</g>
<!-- t=0\n10,21 -->
<g id="node2" class="node"><title>t=0\n10,21</title>
<ellipse fill="none" stroke="black" stroke-width="2" cx="161.16" cy="-28.284" rx="41.5" ry="28.5"/>
<text text-anchor="middle" x="161.16" y="-31.684" font-family="Times,serif" font-size="14.00">t=0</text>
<text text-anchor="middle" x="161.16" y="-15.684" font-family="Times,serif" font-size="14.00">10,21</text>
</g>
<!-- t=0\n10,20&#45;&gt;t=0\n10,21 -->
<g id="edge1" class="edge"><title>t=0\n10,20&#45;&gt;t=0\n10,21</title>
<path fill="none" stroke="black" stroke-width="2" d="M83.464,-28.284C91.659,-28.284 100.37,-28.284 108.87,-28.284"/>
<polygon fill="black" stroke="black" stroke-width="2" points="109.09,-31.7841 119.09,-28.284 109.09,-24.7841 109.09,-31.7841"/>
</g>
<!-- t=0\n10,21&#39; -->
<g id="node3" class="node"><title>t=0\n10,21&#39;</title>
<ellipse fill="none" stroke="black" stroke-width="2" cx="286.25" cy="-28.284" rx="47.5" ry="28.5"/>
<text text-anchor="middle" x="286.25" y="-31.684" font-family="Times,serif" font-size="14.00">t=0</text>
<text text-anchor="middle" x="286.25" y="-15.684" font-family="Times,serif" font-size="14.00">10,21&#39;</text>
</g>
<!-- t=0\n10,21&#45;&gt;t=0\n10,21&#39; -->
<g id="edge2" class="edge"><title>t=0\n10,21&#45;&gt;t=0\n10,21&#39;</title>
<path fill="none" stroke="black" stroke-width="2" d="M203.15,-28.284C211.2,-28.284 219.79,-28.284 228.26,-28.284"/>
<polygon fill="black" stroke="black" stroke-width="2" points="228.49,-31.7841 238.49,-28.284 228.49,-24.7841 228.49,-31.7841"/>
</g>
<!-- t=0\n11,21 -->
<g id="node4" class="node"><title>t=0\n11,21</title>
<ellipse fill="none" stroke="black" stroke-width="2" cx="411.35" cy="-28.284" rx="41.5" ry="28.5"/>
<text text-anchor="middle" x="411.35" y="-31.684" font-family="Times,serif" font-size="14.00">t=0</text>
<text text-anchor="middle" x="411.35" y="-15.684" font-family="Times,serif" font-size="14.00">11,21</text>
</g>
<!-- t=0\n10,21&#39;&#45;&gt;t=0\n11,21 -->
<g id="edge3" class="edge"><title>t=0\n10,21&#39;&#45;&gt;t=0\n11,21</title>
<path fill="none" stroke="black" stroke-width="2" d="M333.79,-28.284C342.12,-28.284 350.83,-28.284 359.28,-28.284"/>
<polygon fill="black" stroke="black" stroke-width="2" points="359.4,-31.7841 369.4,-28.284 359.4,-24.7841 359.4,-31.7841"/>
</g>
<!-- t=0\n11,21&#39; -->
<g id="node5" class="node"><title>t=0\n11,21&#39;</title>
<ellipse fill="none" stroke="black" stroke-width="2" cx="536.44" cy="-28.284" rx="47.5" ry="28.5"/>
<text text-anchor="middle" x="536.44" y="-31.684" font-family="Times,serif" font-size="14.00">t=0</text>
<text text-anchor="middle" x="536.44" y="-15.684" font-family="Times,serif" font-size="14.00">11,21&#39;</text>
</g>
<!-- t=0\n11,21&#45;&gt;t=0\n11,21&#39; -->
<g id="edge4" class="edge"><title>t=0\n11,21&#45;&gt;t=0\n11,21&#39;</title>
<path fill="none" stroke="black" stroke-width="2" d="M453.34,-28.284C461.39,-28.284 469.98,-28.284 478.45,-28.284"/>
<polygon fill="black" stroke="black" stroke-width="2" points="478.68,-31.7841 488.68,-28.284 478.68,-24.7841 478.68,-31.7841"/>
</g>
<!-- t=0\n12,21 -->
<g id="node6" class="node"><title>t=0\n12,21</title>
<ellipse fill="none" stroke="black" stroke-width="2" cx="661.54" cy="-28.284" rx="41.5" ry="28.5"/>
<text text-anchor="middle" x="661.54" y="-31.684" font-family="Times,serif" font-size="14.00">t=0</text>
<text text-anchor="middle" x="661.54" y="-15.684" font-family="Times,serif" font-size="14.00">12,21</text>
</g>
<!-- t=0\n11,21&#39;&#45;&gt;t=0\n12,21 -->
<g id="edge5" class="edge"><title>t=0\n11,21&#39;&#45;&gt;t=0\n12,21</title>
<path fill="none" stroke="black" stroke-width="2" d="M583.98,-28.284C592.31,-28.284 601.02,-28.284 609.47,-28.284"/>
<polygon fill="black" stroke="black" stroke-width="2" points="609.59,-31.7841 619.59,-28.284 609.59,-24.7841 609.59,-31.7841"/>
</g>
<!-- t=0\n10,21&#39;&#39; -->
<g id="node7" class="node"><title>t=0\n10,21&#39;&#39;</title>
<ellipse fill="none" stroke="black" stroke-width="2" cx="792.29" cy="-28.284" rx="53" ry="28.5"/>
<text text-anchor="middle" x="792.29" y="-31.684" font-family="Times,serif" font-size="14.00">t=0</text>
<text text-anchor="middle" x="792.29" y="-15.684" font-family="Times,serif" font-size="14.00">10,21&#39;&#39;</text>
</g>
<!-- t=0\n12,21&#45;&gt;t=0\n10,21&#39;&#39; -->
<g id="edge6" class="edge"><title>t=0\n12,21&#45;&gt;t=0\n10,21&#39;&#39;</title>
<path fill="none" stroke="black" stroke-width="2" d="M703.28,-28.284C711.43,-28.284 720.17,-28.284 728.87,-28.284"/>
<polygon fill="black" stroke="black" stroke-width="2" points="729.02,-31.7841 739.02,-28.284 729.02,-24.7841 729.02,-31.7841"/>
</g>
<!-- ... -->
<g id="node8" class="node"><title>...</title>
<ellipse fill="none" stroke="black" stroke-width="2" cx="908.83" cy="-28.284" rx="27.5073" ry="18"/>
<text text-anchor="middle" x="908.83" y="-23.684" font-family="Times,serif" font-size="14.00">...</text>
</g>
<!-- t=0\n10,21&#39;&#39;&#45;&gt;... -->
<g id="edge7" class="edge"><title>t=0\n10,21&#39;&#39;&#45;&gt;...</title>
<path fill="none" stroke="black" stroke-width="2" d="M845.53,-28.284C854.15,-28.284 862.92,-28.284 871.05,-28.284"/>
<polygon fill="black" stroke="black" stroke-width="2" points="871.31,-31.7841 881.31,-28.284 871.31,-24.7841 871.31,-31.7841"/>
</g>
</g>
</svg>
