<?xml version="1.0" encoding="UTF-8" standalone="no"?>
<!DOCTYPE svg PUBLIC "-//W3C//DTD SVG 1.1//EN"
 "http://www.w3.org/Graphics/SVG/1.1/DTD/svg11.dtd">
<!-- Generated by graphviz version 2.38.0 (20140413.2041)
 -->
<!-- Title: g Pages: 1 -->
<svg width="351pt" height="472pt"
 viewBox="0.00 0.00 350.61 471.88" xmlns="http://www.w3.org/2000/svg" xmlns:xlink="http://www.w3.org/1999/xlink">
<g id="graph0" class="graph" transform="scale(1 1) rotate(0) translate(197.8 230.53)">
<title>g</title>
<polygon fill="white" stroke="none" points="-197.8,241.35 -197.8,-230.53 152.814,-230.53 152.814,241.35 -197.8,241.35"/>
<!-- t=0\n10,20 -->
<g id="node1" class="node"><title>t=0\n10,20</title>
<ellipse fill="none" stroke="black" cx="-152.3" cy="-198.03" rx="41.5" ry="28.5"/>
<text text-anchor="middle" x="-152.3" y="-201.43" font-family="Times,serif" font-size="14.00">t=0</text>
<text text-anchor="middle" x="-152.3" y="-185.43" font-family="Times,serif" font-size="14.00">10,20</text>
</g>
<!-- t=0\n10,21 -->
<g id="node2" class="node"><title>t=0\n10,21</title>
<ellipse fill="none" stroke="black" cx="-97.981" cy="-150.4" rx="41.5" ry="28.5"/>
<text text-anchor="middle" x="-97.981" y="-153.8" font-family="Times,serif" font-size="14.00">t=0</text>
<text text-anchor="middle" x="-97.981" y="-137.8" font-family="Times,serif" font-size="14.00">10,21</text>
</g>
<!-- t=0\n10,20&#45;&gt;t=0\n10,21 -->
<g id="edge1" class="edge"><title>t=0\n10,20&#45;&gt;t=0\n10,21</title>
<path fill="none" stroke="black" d="M-126.73,-175.61C-126.61,-175.5 -126.48,-175.39 -126.36,-175.28"/>
<polygon fill="black" stroke="black" points="-128.979,-182.215 -123.75,-173 -133.584,-176.943 -128.979,-182.215"/>
</g>
<!-- t=0\n10,21&#39; -->
<g id="node3" class="node"><title>t=0\n10,21&#39;</title>
<ellipse fill="none" stroke="black" cx="-50.76" cy="-95.712" rx="47.5" ry="28.5"/>
<text text-anchor="middle" x="-50.76" y="-99.112" font-family="Times,serif" font-size="14.00">t=0</text>
<text text-anchor="middle" x="-50.76" y="-83.112" font-family="Times,serif" font-size="14.00">10,21&#39;</text>
</g>
<!-- t=0\n10,21&#45;&gt;t=0\n10,21&#39; -->
<g id="edge2" class="edge"><title>t=0\n10,21&#45;&gt;t=0\n10,21&#39;</title>
<path fill="none" stroke="black" d="M-76.856,-125.93C-76.77,-125.83 -76.684,-125.73 -76.598,-125.64"/>
<polygon fill="black" stroke="black" points="-76.5979,-130.998 -72.716,-121.14 -81.8982,-126.426 -76.5979,-130.998"/>
</g>
<!-- t=0\n11,21 -->
<g id="node4" class="node"><title>t=0\n11,21</title>
<ellipse fill="none" stroke="black" cx="-5.0956" cy="-39.655" rx="41.5" ry="28.5"/>
<text text-anchor="middle" x="-5.0956" y="-43.055" font-family="Times,serif" font-size="14.00">t=0</text>
<text text-anchor="middle" x="-5.0956" y="-27.055" font-family="Times,serif" font-size="14.00">11,21</text>
</g>
<!-- t=0\n10,21&#39;&#45;&gt;t=0\n11,21 -->
<g id="edge3" class="edge"><title>t=0\n10,21&#39;&#45;&gt;t=0\n11,21</title>
<path fill="none" stroke="black" d="M-29.799,-69.98C-29.705,-69.865 -29.611,-69.75 -29.517,-69.635"/>
<polygon fill="black" stroke="black" points="-28.8921,-74.4101 -25.291,-64.446 -34.3198,-69.9897 -28.8921,-74.4101"/>
</g>
<!-- t=0\n11,21&#39; -->
<g id="node5" class="node"><title>t=0\n11,21&#39;</title>
<ellipse fill="none" stroke="black" cx="33.247" cy="21.703" rx="47.5" ry="28.5"/>
<text text-anchor="middle" x="33.247" y="18.303" font-family="Times,serif" font-size="14.00">t=0</text>
<text text-anchor="middle" x="33.247" y="34.303" font-family="Times,serif" font-size="14.00">11,21&#39;</text>
</g>
<!-- t=0\n11,21&#45;&gt;t=0\n11,21&#39; -->
<g id="edge4" class="edge"><title>t=0\n11,21&#45;&gt;t=0\n11,21&#39;</title>
<path fill="none" stroke="black" d="M11.388,-13.278C11.441,-13.192 11.494,-13.107 11.548,-13.022"/>
<polygon fill="black" stroke="black" points="14.2032,-15.3775 16.534,-5.0422 8.26678,-11.6682 14.2032,-15.3775"/>
</g>
<!-- t=0\n12,21 -->
<g id="node6" class="node"><title>t=0\n12,21</title>
<ellipse fill="none" stroke="black" cx="63.487" cy="87.398" rx="41.5" ry="28.5"/>
<text text-anchor="middle" x="63.487" y="83.998" font-family="Times,serif" font-size="14.00">t=0</text>
<text text-anchor="middle" x="63.487" y="99.998" font-family="Times,serif" font-size="14.00">12,21</text>
</g>
<!-- t=0\n11,21&#39;&#45;&gt;t=0\n12,21 -->
<g id="edge5" class="edge"><title>t=0\n11,21&#39;&#45;&gt;t=0\n12,21</title>
<path fill="none" stroke="black" d="M45.896,49.183C46.159,49.754 46.424,50.328 46.688,50.903"/>
<polygon fill="black" stroke="black" points="49.983,49.6907 50.986,60.238 43.6245,52.6183 49.983,49.6907"/>
</g>
<!-- t=0\n10,21&#39;&#39; -->
<g id="node7" class="node"><title>t=0\n10,21&#39;&#39;</title>
<ellipse fill="none" stroke="black" cx="88.092" cy="155.34" rx="53" ry="28.5"/>
<text text-anchor="middle" x="88.092" y="151.94" font-family="Times,serif" font-size="14.00">t=0</text>
<text text-anchor="middle" x="88.092" y="167.94" font-family="Times,serif" font-size="14.00">10,21&#39;&#39;</text>
</g>
<!-- t=0\n12,21&#45;&gt;t=0\n10,21&#39;&#39; -->
<g id="edge6" class="edge"><title>t=0\n12,21&#45;&gt;t=0\n10,21&#39;&#39;</title>
<path fill="none" stroke="black" d="M73.495,115.03C73.821,115.93 74.149,116.84 74.479,117.75"/>
<polygon fill="black" stroke="black" points="77.8993,116.916 78.013,127.51 71.3174,119.299 77.8993,116.916"/>
</g>
<!-- ... -->
<g id="node8" class="node"><title>...</title>
<ellipse fill="none" stroke="black" cx="121.31" cy="219.35" rx="27.5073" ry="18"/>
<text text-anchor="middle" x="121.31" y="223.95" font-family="Times,serif" font-size="14.00">...</text>
</g>
<!-- t=0\n10,21&#39;&#39;&#45;&gt;... -->
<g id="edge7" class="edge"><title>t=0\n10,21&#39;&#39;&#45;&gt;...</title>
<path fill="none" stroke="black" d="M102.37,182.86C104.11,186.22 105.89,189.64 107.62,192.98"/>
<polygon fill="black" stroke="black" points="110.817,191.542 112.32,202.03 104.605,194.769 110.817,191.542"/>
</g>
</g>
</svg>
