<?xml version="1.0" encoding="UTF-8" standalone="no"?>
<!DOCTYPE svg PUBLIC "-//W3C//DTD SVG 1.1//EN"
 "http://www.w3.org/Graphics/SVG/1.1/DTD/svg11.dtd">
<!-- Generated by graphviz version 2.38.0 (20140413.2041)
 -->
<!-- Title: terminal Pages: 1 -->
<svg width="225pt" height="199pt"
 viewBox="0.00 0.00 224.81 198.66" xmlns="http://www.w3.org/2000/svg" xmlns:xlink="http://www.w3.org/1999/xlink">
<g id="graph0" class="graph" transform="scale(1 1) rotate(0) translate(112.257 99.39)">
<title>terminal</title>
<polygon fill="white" stroke="none" points="-112.257,99.266 -112.257,-99.39 112.557,-99.39 112.557,99.266 -112.257,99.266"/>
<!-- A -->
<!-- F -->
<g id="node2" class="node"><title>F</title>
<text text-anchor="middle" x="0.29853" y="4.83006" font-family="Times,serif" font-size="14.00">F</text>
</g>
<!-- A&#45;&gt;F -->
<g id="edge1" class="edge"><title>A&#45;&gt;F</title>
<path fill="none" stroke="black" d="M-54.1,8.9609C-48.598,8.0777 -42.721,7.1346 -36.941,6.2068"/>
<polygon fill="black" stroke="black" points="-37.1683,2.69857 -26.74,4.5696 -36.059,9.61012 -37.1683,2.69857"/>
</g>
<!-- B -->
<!-- B&#45;&gt;F -->
<g id="edge2" class="edge"><title>B&#45;&gt;F</title>
<path fill="none" stroke="black" d="M37.775,45.869C32.846,39.866 27.253,33.055 21.921,26.561"/>
<polygon fill="black" stroke="black" points="19.0158,28.5383 15.374,18.589 24.4254,24.0957 19.0158,28.5383"/>
</g>
<!-- C -->
<!-- C&#45;&gt;F -->
<g id="edge3" class="edge"><title>C&#45;&gt;F</title>
<path fill="none" stroke="black" d="M21.916,-59.387C18.495,-49.952 14.229,-38.188 10.393,-27.609"/>
<polygon fill="black" stroke="black" points="13.5877,-26.1519 6.8884,-17.944 7.00698,-28.5382 13.5877,-26.1519"/>
</g>
<!-- D -->
<!-- D&#45;&gt;F -->
<g id="edge4" class="edge"><title>D&#45;&gt;F</title>
<path fill="none" stroke="black" d="M54.499,-9.2598C49.074,-8.31 43.285,-7.2963 37.584,-6.2981"/>
<polygon fill="black" stroke="black" points="37.9688,-2.81231 27.515,-4.5353 36.7616,-9.70744 37.9688,-2.81231"/>
</g>
<!-- E -->
<!-- E&#45;&gt;F -->
<g id="edge5" class="edge"><title>E&#45;&gt;F</title>
<path fill="none" stroke="black" d="M-37.437,-45.329C-32.474,-39.336 -26.843,-32.538 -21.473,-26.055"/>
<polygon fill="black" stroke="black" points="-18.5648,-28.0308 -14.881,-18.097 -23.9556,-23.5654 -18.5648,-28.0308"/>
</g>
<!-- G -->
<!-- G&#45;&gt;F -->
<g id="edge6" class="edge"><title>G&#45;&gt;F</title>
<path fill="none" stroke="black" d="M-22.268,59.01C-18.696,49.704 -14.276,38.192 -10.297,27.829"/>
<polygon fill="black" stroke="black" points="-13.5116,26.4365 -6.6603,18.355 -6.97648,28.9451 -13.5116,26.4365"/>
</g>
</g>
</svg>
