<?xml version="1.0" encoding="UTF-8" standalone="no"?>
<!DOCTYPE svg PUBLIC "-//W3C//DTD SVG 1.1//EN"
 "http://www.w3.org/Graphics/SVG/1.1/DTD/svg11.dtd">
<!-- Generated by graphviz version 2.38.0 (20140413.2041)
 -->
<!-- Title: g Pages: 1 -->
<svg width="143pt" height="111pt"
 viewBox="0.00 0.00 143.45 110.75" xmlns="http://www.w3.org/2000/svg" xmlns:xlink="http://www.w3.org/1999/xlink">
<g id="graph0" class="graph" transform="scale(1 1) rotate(0) translate(76.513 47.3)">
<title>g</title>
<polygon fill="white" stroke="none" points="-76.513,63.447 -76.513,-47.3 66.94,-47.3 66.94,63.447 -76.513,63.447"/>
<!-- W -->
<g id="node1" class="node"><title>W</title>
<ellipse fill="none" stroke="black" cx="-36.266" cy="-20.487" rx="27" ry="18"/>
<text text-anchor="middle" x="-36.266" y="-15.887" font-family="Times,serif" font-size="14.00">W</text>
</g>
<!-- B -->
<g id="node2" class="node"><title>B</title>
<ellipse fill="none" stroke="black" cx="35.94" cy="-20.96" rx="27" ry="18"/>
<text text-anchor="middle" x="35.94" y="-16.36" font-family="Times,serif" font-size="14.00">B</text>
</g>
<!-- W&#45;&gt;B -->
<g id="edge1" class="edge"><title>W&#45;&gt;B</title>
<path fill="none" stroke="black" d="M-11.054,-27.124C-7.3396,-27.344 -3.455,-27.462 0.42052,-27.477"/>
<polygon fill="black" stroke="black" points="0.609369,-30.974 10.536,-27.271 0.466777,-23.9754 0.609369,-30.974"/>
<text text-anchor="middle" x="11.683" y="-30.7" font-family="Times,serif" font-size="14.00">lock</text>
</g>
<!-- R -->
<g id="node3" class="node"><title>R</title>
<ellipse fill="none" stroke="black" cx="0.32595" cy="41.447" rx="27" ry="18"/>
<text text-anchor="middle" x="0.32595" y="46.047" font-family="Times,serif" font-size="14.00">R</text>
</g>
<!-- W&#45;&gt;R -->
<g id="edge2" class="edge"><title>W&#45;&gt;R</title>
<path fill="none" stroke="black" d="M-26.267,-3.563C-22.718,2.445 -18.639,9.3478 -14.76,15.914"/>
<polygon fill="black" stroke="black" points="-11.7346,14.1541 -9.6609,24.544 -17.7612,17.715 -11.7346,14.1541"/>
<text text-anchor="middle" x="-46.513" y="18.776" font-family="Times,serif" font-size="14.00">unlock</text>
</g>
<!-- B&#45;&gt;W -->
<g id="edge3" class="edge"><title>B&#45;&gt;W</title>
<path fill="none" stroke="black" d="M10.728,-14.323C7.0136,-14.103 3.1291,-13.985 -0.74647,-13.971"/>
<polygon fill="black" stroke="black" points="-0.935003,-10.474 -10.862,-14.176 -0.793103,-17.4726 -0.935003,-10.474"/>
<text text-anchor="middle" x="-8.009" y="-1.547" font-family="Times,serif" font-size="14.00">unlock</text>
</g>
<!-- B&#45;&gt;R -->
<g id="edge4" class="edge"><title>B&#45;&gt;R</title>
<path fill="none" stroke="black" d="M26.208,-3.9073C22.754,2.1467 18.784,9.1023 15.008,15.719"/>
<polygon fill="black" stroke="black" points="18.042,17.4641 10.046,24.415 11.9621,13.9949 18.042,17.4641"/>
<text text-anchor="middle" x="3.6084" y="18.506" font-family="Times,serif" font-size="14.00">lock</text>
</g>
</g>
</svg>
