<?xml version="1.0" encoding="UTF-8" standalone="no"?>
<!DOCTYPE svg PUBLIC "-//W3C//DTD SVG 1.1//EN"
 "http://www.w3.org/Graphics/SVG/1.1/DTD/svg11.dtd">
<!-- Generated by graphviz version 2.38.0 (20140413.2041)
 -->
<!-- Title: initial Pages: 1 -->
<svg width="216pt" height="207pt"
 viewBox="0.00 0.00 216.37 206.95" xmlns="http://www.w3.org/2000/svg" xmlns:xlink="http://www.w3.org/1999/xlink">
<g id="graph0" class="graph" transform="scale(1 1) rotate(0) translate(108.469 103.208)">
<title>initial</title>
<polygon fill="white" stroke="none" points="-108.469,103.739 -108.469,-103.208 107.902,-103.208 107.902,103.739 -108.469,103.739"/>
<!-- A -->
<!-- B -->
<!-- C -->
<!-- D -->
<!-- E -->
<!-- F -->
<!-- I -->
<g id="node7" class="node"><title>I</title>
<text text-anchor="middle" x="-0.19456" y="4.87421" font-family="Times,serif" font-size="14.00">I</text>
</g>
<!-- I&#45;&gt;A -->
<g id="edge1" class="edge"><title>I&#45;&gt;A</title>
<path fill="none" stroke="black" d="M-27.221,10.368C-31.549,11.984 -36.091,13.68 -40.601,15.365"/>
<polygon fill="black" stroke="black" points="-39.7344,18.7774 -50.327,18.997 -42.1833,12.2197 -39.7344,18.7774"/>
</g>
<!-- I&#45;&gt;B -->
<g id="edge2" class="edge"><title>I&#45;&gt;B</title>
<path fill="none" stroke="black" d="M22.321,18.339C25.927,21.231 29.711,24.267 33.468,27.281"/>
<polygon fill="black" stroke="black" points="35.9608,24.7938 41.57,33.782 31.58,30.2535 35.9608,24.7938"/>
</g>
<!-- I&#45;&gt;C -->
<g id="edge3" class="edge"><title>I&#45;&gt;C</title>
<path fill="none" stroke="black" d="M-3.0605,18.354C-4.6989,28.69 -6.7896,41.879 -8.6391,53.547"/>
<polygon fill="black" stroke="black" points="-5.22755,54.3813 -10.25,63.71 -12.1412,53.2853 -5.22755,54.3813"/>
</g>
<!-- I&#45;&gt;D -->
<g id="edge4" class="edge"><title>I&#45;&gt;D</title>
<path fill="none" stroke="black" d="M-22.04,-17.884C-25.974,-21.154 -30.133,-24.611 -34.24,-28.025"/>
<polygon fill="black" stroke="black" points="-36.5491,-25.3931 -42.002,-34.477 -32.0745,-30.7762 -36.5491,-25.3931"/>
</g>
<!-- I&#45;&gt;E -->
<g id="edge5" class="edge"><title>I&#45;&gt;E</title>
<path fill="none" stroke="black" d="M27.204,-10.261C31.457,-11.897 35.909,-13.609 40.326,-15.307"/>
<polygon fill="black" stroke="black" points="39.2611,-18.6473 49.851,-18.97 41.7737,-12.1138 39.2611,-18.6473"/>
</g>
<!-- I&#45;&gt;F -->
<g id="edge6" class="edge"><title>I&#45;&gt;F</title>
<path fill="none" stroke="black" d="M2.8137,-17.809C4.5335,-28.148 6.7282,-41.34 8.6696,-53.011"/>
<polygon fill="black" stroke="black" points="5.26686,-53.8852 10.361,-63.175 12.1719,-52.7361 5.26686,-53.8852"/>
</g>
</g>
</svg>
