<?xml version="1.0" encoding="UTF-8" standalone="no"?>
<!DOCTYPE svg PUBLIC "-//W3C//DTD SVG 1.1//EN"
 "http://www.w3.org/Graphics/SVG/1.1/DTD/svg11.dtd">
<!-- Generated by graphviz version 2.38.0 (20140413.2041)
 -->
<!-- Title: g Pages: 1 -->
<svg width="828pt" height="425pt"
 viewBox="0.00 0.00 827.99 425.00" xmlns="http://www.w3.org/2000/svg" xmlns:xlink="http://www.w3.org/1999/xlink">
<g id="graph0" class="graph" transform="scale(1 1) rotate(0) translate(4.043 420.5)">
<title>g</title>
<polygon fill="white" stroke="none" points="-4.043,4.5 -4.043,-420.5 823.95,-420.5 823.95,4.5 -4.043,4.5"/>
<!-- t=0,\n10, 20 -->
<g id="node1" class="node"><title>t=0,\n10, 20</title>
<ellipse fill="none" stroke="black" cx="221" cy="-388" rx="47.5" ry="28.5"/>
<text text-anchor="middle" x="221" y="-391.4" font-family="Times,serif" font-size="14.00">t=0,</text>
<text text-anchor="middle" x="221" y="-375.4" font-family="Times,serif" font-size="14.00">10, 20</text>
</g>
<!-- t=0,\n10, 21 -->
<g id="node2" class="node"><title>t=0,\n10, 21</title>
<ellipse fill="none" stroke="black" cx="47.457" cy="-326.07" rx="47.5" ry="28.5"/>
<text text-anchor="middle" x="47.457" y="-329.47" font-family="Times,serif" font-size="14.00">t=0,</text>
<text text-anchor="middle" x="47.457" y="-313.47" font-family="Times,serif" font-size="14.00">10, 21</text>
</g>
<!-- t=0,\n10, 20&#45;&gt;t=0,\n10, 21 -->
<g id="edge1" class="edge"><title>t=0,\n10, 20&#45;&gt;t=0,\n10, 21</title>
<path fill="none" stroke="black" d="M180.31,-373.48C155.7,-364.7 124.13,-353.43 97.939,-344.08"/>
<polygon fill="black" stroke="black" points="98.7846,-340.666 88.19,-340.6 96.4313,-347.258 98.7846,-340.666"/>
</g>
<!-- t=0,\n11, 20 -->
<g id="node3" class="node"><title>t=0,\n11, 20</title>
<ellipse fill="none" stroke="black" cx="347.27" cy="-165.09" rx="47.5" ry="28.5"/>
<text text-anchor="middle" x="347.27" y="-168.49" font-family="Times,serif" font-size="14.00">t=0,</text>
<text text-anchor="middle" x="347.27" y="-152.49" font-family="Times,serif" font-size="14.00">11, 20</text>
</g>
<!-- t=0,\n10, 20&#45;&gt;t=0,\n11, 20 -->
<g id="edge2" class="edge"><title>t=0,\n10, 20&#45;&gt;t=0,\n11, 20</title>
<path fill="none" stroke="black" d="M236.23,-361.11C258.94,-321.03 301.69,-245.55 327.01,-200.85"/>
<polygon fill="black" stroke="black" points="330.095,-202.506 331.98,-192.08 324.005,-199.054 330.095,-202.506"/>
</g>
<!-- t=0,\n10, 21&#45;&gt;t=0,\n10, 21 -->
<g id="edge3" class="edge"><title>t=0,\n10, 21&#45;&gt;t=0,\n10, 21</title>
<path fill="none" stroke="black" d="M93.58,-332.7C104.64,-332.18 112.83,-329.97 112.83,-326.07 112.83,-323.51 109.3,-321.67 103.75,-320.57"/>
<polygon fill="black" stroke="black" points="103.905,-317.066 93.58,-319.44 103.132,-324.023 103.905,-317.066"/>
</g>
<!-- t=0,\n11, 21 -->
<g id="node4" class="node"><title>t=0,\n11, 21</title>
<ellipse fill="none" stroke="black" cx="145.96" cy="-171.4" rx="47.5" ry="28.5"/>
<text text-anchor="middle" x="145.96" y="-174.8" font-family="Times,serif" font-size="14.00">t=0,</text>
<text text-anchor="middle" x="145.96" y="-158.8" font-family="Times,serif" font-size="14.00">11, 21</text>
</g>
<!-- t=0,\n10, 21&#45;&gt;t=0,\n11, 21 -->
<g id="edge4" class="edge"><title>t=0,\n10, 21&#45;&gt;t=0,\n11, 21</title>
<path fill="none" stroke="black" d="M64.391,-299.48C80.721,-273.84 105.54,-234.87 123.51,-206.66"/>
<polygon fill="black" stroke="black" points="126.669,-208.215 129.09,-197.9 120.765,-204.454 126.669,-208.215"/>
</g>
<!-- t=0,\n11, 20&#45;&gt;t=0,\n11, 21 -->
<g id="edge5" class="edge"><title>t=0,\n11, 20&#45;&gt;t=0,\n11, 21</title>
<path fill="none" stroke="black" d="M299.82,-166.58C270.99,-167.49 234,-168.64 203.51,-169.6"/>
<polygon fill="black" stroke="black" points="203.334,-166.104 193.45,-169.92 203.556,-173.1 203.334,-166.104"/>
</g>
<!-- t=0,\n12, 20 -->
<g id="node5" class="node"><title>t=0,\n12, 20</title>
<ellipse fill="none" stroke="black" cx="343.94" cy="-247.42" rx="47.5" ry="28.5"/>
<text text-anchor="middle" x="343.94" y="-250.82" font-family="Times,serif" font-size="14.00">t=0,</text>
<text text-anchor="middle" x="343.94" y="-234.82" font-family="Times,serif" font-size="14.00">12, 20</text>
</g>
<!-- t=0,\n11, 20&#45;&gt;t=0,\n12, 20 -->
<g id="edge6" class="edge"><title>t=0,\n11, 20&#45;&gt;t=0,\n12, 20</title>
<path fill="none" stroke="black" d="M346.12,-193.43C345.92,-198.34 345.72,-203.53 345.51,-208.67"/>
<polygon fill="black" stroke="black" points="341.998,-208.907 345.09,-219.04 348.992,-209.19 341.998,-208.907"/>
</g>
<!-- t=0,\n11, 21&#45;&gt;t=0,\n11, 21 -->
<g id="edge7" class="edge"><title>t=0,\n11, 21&#45;&gt;t=0,\n11, 21</title>
<path fill="none" stroke="black" d="M192.09,-178.04C203.15,-177.52 211.34,-175.31 211.34,-171.4 211.34,-168.84 207.81,-167.01 202.26,-165.91"/>
<polygon fill="black" stroke="black" points="202.418,-162.406 192.09,-164.77 201.638,-169.362 202.418,-162.406"/>
</g>
<!-- t=0,\n12, 21 -->
<g id="node6" class="node"><title>t=0,\n12, 21</title>
<ellipse fill="none" stroke="black" cx="221" cy="-28" rx="47.5" ry="28.5"/>
<text text-anchor="middle" x="221" y="-31.4" font-family="Times,serif" font-size="14.00">t=0,</text>
<text text-anchor="middle" x="221" y="-15.4" font-family="Times,serif" font-size="14.00">12, 21</text>
</g>
<!-- t=0,\n11, 21&#45;&gt;t=0,\n12, 21 -->
<g id="edge8" class="edge"><title>t=0,\n11, 21&#45;&gt;t=0,\n12, 21</title>
<path fill="none" stroke="black" d="M160.25,-144.09C172.09,-121.47 189.02,-89.118 202,-64.311"/>
<polygon fill="black" stroke="black" points="205.227,-65.6924 206.76,-55.209 199.024,-62.4484 205.227,-65.6924"/>
</g>
<!-- t=0,\n12, 20&#45;&gt;t=0,\n12, 21 -->
<g id="edge10" class="edge"><title>t=0,\n12, 20&#45;&gt;t=0,\n12, 21</title>
<path fill="none" stroke="black" d="M328.87,-220.52C306.84,-181.2 265.8,-107.96 241.19,-64.033"/>
<polygon fill="black" stroke="black" points="244.141,-62.1395 236.2,-55.126 238.034,-65.5609 244.141,-62.1395"/>
</g>
<!-- t=1,\n10, 20 -->
<g id="node7" class="node"><title>t=1,\n10, 20</title>
<ellipse fill="none" stroke="black" cx="581" cy="-388" rx="47.5" ry="28.5"/>
<text text-anchor="middle" x="581" y="-391.4" font-family="Times,serif" font-size="14.00">t=1,</text>
<text text-anchor="middle" x="581" y="-375.4" font-family="Times,serif" font-size="14.00">10, 20</text>
</g>
<!-- t=0,\n12, 20&#45;&gt;t=1,\n10, 20 -->
<g id="edge9" class="edge"><title>t=0,\n12, 20&#45;&gt;t=1,\n10, 20</title>
<path fill="none" stroke="black" d="M377.65,-267.42C419.84,-292.43 492.12,-335.29 538.17,-362.6"/>
<polygon fill="black" stroke="black" points="536.634,-365.758 547.02,-367.85 540.205,-359.738 536.634,-365.758"/>
</g>
<!-- t=0,\n12, 21&#45;&gt;t=0,\n12, 21 -->
<g id="edge22" class="edge"><title>t=0,\n12, 21&#45;&gt;t=0,\n12, 21</title>
<path fill="none" stroke="black" d="M267.12,-34.631C278.18,-34.113 286.38,-31.902 286.38,-28 286.38,-25.439 282.85,-23.607 277.3,-22.503"/>
<polygon fill="black" stroke="black" points="277.446,-18.9977 267.12,-21.369 276.671,-25.9547 277.446,-18.9977"/>
</g>
<!-- t=1,\n10, 21 -->
<g id="node8" class="node"><title>t=1,\n10, 21</title>
<ellipse fill="none" stroke="black" cx="454.92" cy="-165.47" rx="47.5" ry="28.5"/>
<text text-anchor="middle" x="454.92" y="-168.87" font-family="Times,serif" font-size="14.00">t=1,</text>
<text text-anchor="middle" x="454.92" y="-152.87" font-family="Times,serif" font-size="14.00">10, 21</text>
</g>
<!-- t=0,\n12, 21&#45;&gt;t=1,\n10, 21 -->
<g id="edge21" class="edge"><title>t=0,\n12, 21&#45;&gt;t=1,\n10, 21</title>
<path fill="none" stroke="black" d="M255.01,-47.989C296.59,-72.423 366.98,-113.79 412.18,-140.35"/>
<polygon fill="black" stroke="black" points="410.465,-143.402 420.86,-145.45 414.011,-137.366 410.465,-143.402"/>
</g>
<!-- t=1,\n10, 20&#45;&gt;t=1,\n10, 21 -->
<g id="edge11" class="edge"><title>t=1,\n10, 20&#45;&gt;t=1,\n10, 21</title>
<path fill="none" stroke="black" d="M565.79,-361.16C543.12,-321.14 500.42,-245.79 475.14,-201.17"/>
<polygon fill="black" stroke="black" points="478.149,-199.381 470.18,-192.4 472.056,-202.827 478.149,-199.381"/>
</g>
<!-- t=1,\n11, 20 -->
<g id="node9" class="node"><title>t=1,\n11, 20</title>
<ellipse fill="none" stroke="black" cx="754.57" cy="-326.14" rx="47.5" ry="28.5"/>
<text text-anchor="middle" x="754.57" y="-329.54" font-family="Times,serif" font-size="14.00">t=1,</text>
<text text-anchor="middle" x="754.57" y="-313.54" font-family="Times,serif" font-size="14.00">11, 20</text>
</g>
<!-- t=1,\n10, 20&#45;&gt;t=1,\n11, 20 -->
<g id="edge12" class="edge"><title>t=1,\n10, 20&#45;&gt;t=1,\n11, 20</title>
<path fill="none" stroke="black" d="M621.69,-373.5C646.31,-364.73 677.88,-353.47 704.08,-344.13"/>
<polygon fill="black" stroke="black" points="705.582,-347.31 713.83,-340.66 703.235,-340.716 705.582,-347.31"/>
</g>
<!-- t=1,\n10, 22 -->
<g id="node10" class="node"><title>t=1,\n10, 22</title>
<ellipse fill="none" stroke="black" cx="456.62" cy="-246.98" rx="47.5" ry="28.5"/>
<text text-anchor="middle" x="456.62" y="-250.38" font-family="Times,serif" font-size="14.00">t=1,</text>
<text text-anchor="middle" x="456.62" y="-234.38" font-family="Times,serif" font-size="14.00">10, 22</text>
</g>
<!-- t=1,\n10, 21&#45;&gt;t=1,\n10, 22 -->
<g id="edge13" class="edge"><title>t=1,\n10, 21&#45;&gt;t=1,\n10, 22</title>
<path fill="none" stroke="black" d="M455.51,-193.98C455.61,-198.6 455.71,-203.45 455.81,-208.26"/>
<polygon fill="black" stroke="black" points="452.319,-208.707 456.03,-218.63 459.317,-208.558 452.319,-208.707"/>
</g>
<!-- t=1,\n11, 21 -->
<g id="node11" class="node"><title>t=1,\n11, 21</title>
<ellipse fill="none" stroke="black" cx="656.22" cy="-171.45" rx="47.5" ry="28.5"/>
<text text-anchor="middle" x="656.22" y="-174.85" font-family="Times,serif" font-size="14.00">t=1,</text>
<text text-anchor="middle" x="656.22" y="-158.85" font-family="Times,serif" font-size="14.00">11, 21</text>
</g>
<!-- t=1,\n10, 21&#45;&gt;t=1,\n11, 21 -->
<g id="edge14" class="edge"><title>t=1,\n10, 21&#45;&gt;t=1,\n11, 21</title>
<path fill="none" stroke="black" d="M502.37,-166.88C531.19,-167.73 568.18,-168.83 598.67,-169.74"/>
<polygon fill="black" stroke="black" points="598.64,-173.241 608.74,-170.04 598.849,-166.244 598.64,-173.241"/>
</g>
<!-- t=1,\n11, 20&#45;&gt;t=1,\n11, 20 -->
<g id="edge15" class="edge"><title>t=1,\n11, 20&#45;&gt;t=1,\n11, 20</title>
<path fill="none" stroke="black" d="M800.69,-332.77C811.75,-332.25 819.95,-330.04 819.95,-326.14 819.95,-323.58 816.42,-321.75 810.87,-320.64"/>
<polygon fill="black" stroke="black" points="811.015,-317.135 800.69,-319.51 810.243,-324.092 811.015,-317.135"/>
</g>
<!-- t=1,\n11, 20&#45;&gt;t=1,\n11, 21 -->
<g id="edge16" class="edge"><title>t=1,\n11, 20&#45;&gt;t=1,\n11, 21</title>
<path fill="none" stroke="black" d="M737.66,-299.55C721.36,-273.9 696.58,-234.93 678.63,-206.71"/>
<polygon fill="black" stroke="black" points="681.384,-204.517 673.07,-197.95 675.474,-208.269 681.384,-204.517"/>
</g>
<!-- t=1,\n10, 22&#45;&gt;t=0,\n10, 20 -->
<g id="edge17" class="edge"><title>t=1,\n10, 22&#45;&gt;t=0,\n10, 20</title>
<path fill="none" stroke="black" d="M422.86,-267.19C380.87,-292.32 309.15,-335.24 263.47,-362.58"/>
<polygon fill="black" stroke="black" points="261.482,-359.691 254.7,-367.83 265.078,-365.697 261.482,-359.691"/>
</g>
<!-- t=1,\n11, 22 -->
<g id="node12" class="node"><title>t=1,\n11, 22</title>
<ellipse fill="none" stroke="black" cx="581" cy="-28" rx="47.5" ry="28.5"/>
<text text-anchor="middle" x="581" y="-31.4" font-family="Times,serif" font-size="14.00">t=1,</text>
<text text-anchor="middle" x="581" y="-15.4" font-family="Times,serif" font-size="14.00">11, 22</text>
</g>
<!-- t=1,\n10, 22&#45;&gt;t=1,\n11, 22 -->
<g id="edge18" class="edge"><title>t=1,\n10, 22&#45;&gt;t=1,\n11, 22</title>
<path fill="none" stroke="black" d="M471.87,-220.13C494.16,-180.89 535.67,-107.8 560.57,-63.96"/>
<polygon fill="black" stroke="black" points="563.723,-65.4947 565.62,-55.071 557.637,-62.0369 563.723,-65.4947"/>
</g>
<!-- t=1,\n11, 21&#45;&gt;t=1,\n11, 21 -->
<g id="edge19" class="edge"><title>t=1,\n11, 21&#45;&gt;t=1,\n11, 21</title>
<path fill="none" stroke="black" d="M702.34,-178.08C713.4,-177.56 721.59,-175.35 721.59,-171.45 721.59,-168.89 718.06,-167.06 712.51,-165.95"/>
<polygon fill="black" stroke="black" points="712.665,-162.446 702.34,-164.82 711.892,-169.403 712.665,-162.446"/>
</g>
<!-- t=1,\n11, 21&#45;&gt;t=1,\n11, 22 -->
<g id="edge20" class="edge"><title>t=1,\n11, 21&#45;&gt;t=1,\n11, 22</title>
<path fill="none" stroke="black" d="M641.89,-144.13C630.02,-121.5 613.06,-89.137 600.05,-64.323"/>
<polygon fill="black" stroke="black" points="603.017,-62.4451 595.27,-55.218 596.819,-65.6989 603.017,-62.4451"/>
</g>
<!-- t=1,\n11, 22&#45;&gt;t=0,\n11, 20 -->
<g id="edge23" class="edge"><title>t=1,\n11, 22&#45;&gt;t=0,\n11, 20</title>
<path fill="none" stroke="black" d="M547.01,-47.935C505.47,-72.302 435.14,-113.56 389.98,-140.04"/>
<polygon fill="black" stroke="black" points="388.149,-137.056 381.3,-145.14 391.695,-143.092 388.149,-137.056"/>
</g>
<!-- t=1,\n11, 22&#45;&gt;t=1,\n11, 22 -->
<g id="edge24" class="edge"><title>t=1,\n11, 22&#45;&gt;t=1,\n11, 22</title>
<path fill="none" stroke="black" d="M627.12,-34.631C638.18,-34.113 646.38,-31.902 646.38,-28 646.38,-25.439 642.85,-23.607 637.3,-22.503"/>
<polygon fill="black" stroke="black" points="637.446,-18.9977 627.12,-21.369 636.671,-25.9547 637.446,-18.9977"/>
</g>
</g>
</svg>
