<?xml version="1.0" encoding="UTF-8" standalone="no"?>
<!DOCTYPE svg PUBLIC "-//W3C//DTD SVG 1.1//EN"
 "http://www.w3.org/Graphics/SVG/1.1/DTD/svg11.dtd">
<!-- Generated by graphviz version 2.38.0 (20140413.2041)
 -->
<!-- Title: g Pages: 1 -->
<svg width="422pt" height="406pt"
 viewBox="0.00 0.00 422.00 406.01" xmlns="http://www.w3.org/2000/svg" xmlns:xlink="http://www.w3.org/1999/xlink">
<g id="graph0" class="graph" transform="scale(1 1) rotate(0) translate(4 402.01)">
<title>g</title>
<polygon fill="white" stroke="none" points="-4,4 -4,-402.01 418,-402.01 418,4 -4,4"/>
<!-- W -->
<g id="node1" class="node"><title>W</title>
<ellipse fill="white" stroke="white" stroke-width="2" cx="27" cy="-378" rx="27" ry="18"/>
<text text-anchor="middle" x="27" y="-373.4" font-family="Times,serif" font-size="14.00">W</text>
</g>
<!-- B -->
<g id="node2" class="node"><title>B</title>
<ellipse fill="black" stroke="black" stroke-width="2" cx="387" cy="-378" rx="27" ry="18"/>
<text text-anchor="middle" x="387" y="-373.4" font-family="Times,serif" font-size="14.00">B</text>
</g>
<!-- W&#45;&gt;B -->
<g id="edge1" class="edge"><title>W&#45;&gt;B</title>
<path fill="none" stroke="black" stroke-width="2" d="M53.472,-381.74C116.93,-385.56 277.81,-385.75 350.44,-382.28"/>
<polygon fill="black" stroke="black" stroke-width="2" points="350.692,-385.772 360.49,-381.74 350.317,-378.782 350.692,-385.772"/>
<text text-anchor="middle" x="184.95" y="-385.41" font-family="Times,serif" font-size="14.00">lock</text>
</g>
<!-- R -->
<g id="node3" class="node"><title>R</title>
<ellipse fill="red" stroke="red" stroke-width="2" cx="207" cy="-18" rx="27" ry="18"/>
<text text-anchor="middle" x="207" y="-13.4" font-family="Times,serif" font-size="14.00">R</text>
</g>
<!-- W&#45;&gt;R -->
<g id="edge2" class="edge"><title>W&#45;&gt;R</title>
<path fill="none" stroke="black" stroke-width="2" d="M35.682,-360.64C64.791,-302.42 159.05,-113.89 193.9,-44.208"/>
<polygon fill="black" stroke="black" stroke-width="2" points="197.068,-45.6985 198.41,-35.189 190.807,-42.5677 197.068,-45.6985"/>
<text text-anchor="middle" x="88.789" y="-205.82" font-family="Times,serif" font-size="14.00">unlock</text>
</g>
<!-- B&#45;&gt;W -->
<g id="edge3" class="edge"><title>B&#45;&gt;W</title>
<path fill="none" stroke="black" stroke-width="2" d="M360.53,-374.26C297.07,-370.44 136.19,-370.25 63.563,-373.72"/>
<polygon fill="black" stroke="black" stroke-width="2" points="63.3078,-370.229 53.51,-374.26 63.6834,-377.218 63.3078,-370.229"/>
<text text-anchor="middle" x="186.05" y="-361.39" font-family="Times,serif" font-size="14.00">unlock</text>
</g>
<!-- B&#45;&gt;R -->
<g id="edge4" class="edge"><title>B&#45;&gt;R</title>
<path fill="none" stroke="black" stroke-width="2" d="M378.32,-360.64C349.21,-302.42 254.95,-113.89 220.1,-44.208"/>
<polygon fill="black" stroke="black" stroke-width="2" points="223.193,-42.5677 215.59,-35.189 216.932,-45.6985 223.193,-42.5677"/>
<text text-anchor="middle" x="282.21" y="-205.82" font-family="Times,serif" font-size="14.00">lock</text>
</g>
</g>
</svg>
