<?xml version="1.0" encoding="UTF-8" standalone="no"?>
<!DOCTYPE svg PUBLIC "-//W3C//DTD SVG 1.1//EN"
 "http://www.w3.org/Graphics/SVG/1.1/DTD/svg11.dtd">
<!-- Generated by graphviz version 2.38.0 (20140413.2041)
 -->
<!-- Title: g Pages: 1 -->
<svg width="190pt" height="220pt"
 viewBox="0.00 0.00 189.50 220.00" xmlns="http://www.w3.org/2000/svg" xmlns:xlink="http://www.w3.org/1999/xlink">
<g id="graph0" class="graph" transform="scale(1 1) rotate(0) translate(9.7514 216)">
<title>g</title>
<polygon fill="white" stroke="none" points="-9.7514,4 -9.7514,-216 179.75,-216 179.75,4 -9.7514,4"/>
<!-- W -->
<g id="node1" class="node"><title>W</title>
<ellipse fill="white" stroke="black" stroke-width="2" cx="58.747" cy="-194" rx="27" ry="18"/>
<text text-anchor="middle" x="58.747" y="-189.4" font-family="Times,serif" font-size="14.00">W</text>
</g>
<!-- B -->
<g id="node2" class="node"><title>B</title>
<ellipse fill="black" stroke="black" stroke-width="2" cx="58.747" cy="-106" rx="27" ry="18"/>
<text text-anchor="middle" x="58.747" y="-101.4" font-family="Times,serif" font-size="14.00">B</text>
</g>
<!-- W&#45;&gt;B -->
<g id="edge1" class="edge"><title>W&#45;&gt;B</title>
<path fill="none" stroke="black" stroke-width="2" d="M35.22,-184.73C23.208,-179.17 9.694,-170.53 2.7468,-158 -5.7514,-142.67 9.7875,-129.47 26.633,-120.35"/>
<polygon fill="black" stroke="black" stroke-width="2" points="28.5805,-123.291 35.982,-115.71 25.4685,-117.021 28.5805,-123.291"/>
<text text-anchor="middle" x="19.747" y="-145.4" font-family="Times,serif" font-size="14.00">lock</text>
</g>
<!-- R -->
<g id="node3" class="node"><title>R</title>
<ellipse fill="red" stroke="black" stroke-width="2" cx="96.747" cy="-18" rx="27" ry="18"/>
<text text-anchor="middle" x="96.747" y="-13.4" font-family="Times,serif" font-size="14.00">R</text>
</g>
<!-- W&#45;&gt;R -->
<g id="edge2" class="edge"><title>W&#45;&gt;R</title>
<path fill="none" stroke="black" stroke-width="2" d="M81.595,-184.15C92.835,-178.49 105.32,-169.94 111.75,-158 133.65,-117.29 121.04,-99.278 111.75,-54 111.12,-50.926 110.2,-47.789 109.13,-44.717"/>
<polygon fill="black" stroke="black" stroke-width="2" points="112.319,-43.2668 105.35,-35.287 105.822,-45.8713 112.319,-43.2668"/>
<text text-anchor="middle" x="149.75" y="-101.4" font-family="Times,serif" font-size="14.00">unlock</text>
</g>
<!-- B&#45;&gt;W -->
<g id="edge3" class="edge"><title>B&#45;&gt;W</title>
<path fill="none" stroke="black" stroke-width="2" d="M58.747,-124.08C58.747,-135.86 58.747,-151.77 58.747,-165.34"/>
<polygon fill="black" stroke="black" stroke-width="2" points="55.2471,-165.6 58.747,-175.6 62.2471,-165.6 55.2471,-165.6"/>
<text text-anchor="middle" x="84.747" y="-145.4" font-family="Times,serif" font-size="14.00">unlock</text>
</g>
<!-- B&#45;&gt;R -->
<g id="edge4" class="edge"><title>B&#45;&gt;R</title>
<path fill="none" stroke="black" stroke-width="2" d="M64.327,-88.223C67.84,-78.157 72.66,-65.18 77.747,-54 79.223,-50.755 80.876,-47.397 82.573,-44.104"/>
<polygon fill="black" stroke="black" stroke-width="2" points="85.7375,-45.6085 87.369,-35.14 79.5654,-42.3062 85.7375,-45.6085"/>
<text text-anchor="middle" x="94.747" y="-57.4" font-family="Times,serif" font-size="14.00">lock</text>
</g>
</g>
</svg>
